<mxfile host="app.diagrams.net" modified="2022-01-02T02:31:37.578Z" agent="5.0 (Windows)" etag="QQSrU3WRk3S1qkgM3oHd" version="16.1.2" type="github">
  <diagram id="C5RBs43oDa-KdzZeNtuy" name="Page-1">
    <mxGraphModel dx="2249" dy="789" grid="1" gridSize="10" guides="1" tooltips="1" connect="1" arrows="1" fold="1" page="1" pageScale="1" pageWidth="827" pageHeight="1169" math="0" shadow="0">
      <root>
        <mxCell id="WIyWlLk6GJQsqaUBKTNV-0" />
        <mxCell id="WIyWlLk6GJQsqaUBKTNV-1" parent="WIyWlLk6GJQsqaUBKTNV-0" />
        <mxCell id="_HhjCLEWaKEjp_m6gsVB-4" style="edgeStyle=orthogonalEdgeStyle;rounded=0;orthogonalLoop=1;jettySize=auto;html=1;endArrow=none;endFill=0;startArrow=diamondThin;startFill=1;" parent="WIyWlLk6GJQsqaUBKTNV-1" source="FWzNcIcn6qoyuVg69suf-0" target="_HhjCLEWaKEjp_m6gsVB-0" edge="1">
          <mxGeometry relative="1" as="geometry" />
        </mxCell>
        <mxCell id="FWzNcIcn6qoyuVg69suf-0" value="CManageConnecter" style="swimlane;fontStyle=1;align=center;verticalAlign=top;childLayout=stackLayout;horizontal=1;startSize=26;horizontalStack=0;resizeParent=1;resizeParentMax=0;resizeLast=0;collapsible=1;marginBottom=0;fillColor=#e51400;fontColor=#ffffff;strokeColor=#B20000;" parent="WIyWlLk6GJQsqaUBKTNV-1" vertex="1">
          <mxGeometry x="-431" y="200" width="357" height="112" as="geometry">
            <mxRectangle x="100" y="80" width="150" height="26" as="alternateBounds" />
          </mxGeometry>
        </mxCell>
        <mxCell id="FWzNcIcn6qoyuVg69suf-1" value="+ m_Pluginsp: QMap&lt;QString, CPluginViewer*&gt;" style="text;strokeColor=none;fillColor=none;align=left;verticalAlign=top;spacingLeft=4;spacingRight=4;overflow=hidden;rotatable=0;points=[[0,0.5],[1,0.5]];portConstraint=eastwest;" parent="FWzNcIcn6qoyuVg69suf-0" vertex="1">
          <mxGeometry y="26" width="357" height="26" as="geometry" />
        </mxCell>
        <mxCell id="FWzNcIcn6qoyuVg69suf-2" value="" style="line;strokeWidth=1;fillColor=none;align=left;verticalAlign=middle;spacingTop=-1;spacingLeft=3;spacingRight=3;rotatable=0;labelPosition=right;points=[];portConstraint=eastwest;" parent="FWzNcIcn6qoyuVg69suf-0" vertex="1">
          <mxGeometry y="52" width="357" height="8" as="geometry" />
        </mxCell>
        <mxCell id="FWzNcIcn6qoyuVg69suf-3" value="+ CreateConnecter(const QString &amp;id): virtural  CConnecter*" style="text;strokeColor=none;fillColor=none;align=left;verticalAlign=top;spacingLeft=4;spacingRight=4;overflow=hidden;rotatable=0;points=[[0,0.5],[1,0.5]];portConstraint=eastwest;" parent="FWzNcIcn6qoyuVg69suf-0" vertex="1">
          <mxGeometry y="60" width="357" height="26" as="geometry" />
        </mxCell>
        <mxCell id="FWzNcIcn6qoyuVg69suf-6" value="+ LoadConnecter(const QString&amp; szFile): virtural  CConnecter*" style="text;strokeColor=none;fillColor=none;align=left;verticalAlign=top;spacingLeft=4;spacingRight=4;overflow=hidden;rotatable=0;points=[[0,0.5],[1,0.5]];portConstraint=eastwest;" parent="FWzNcIcn6qoyuVg69suf-0" vertex="1">
          <mxGeometry y="86" width="357" height="26" as="geometry" />
        </mxCell>
        <mxCell id="FWzNcIcn6qoyuVg69suf-32" value="CConnecter" style="swimlane;fontStyle=1;align=center;verticalAlign=top;childLayout=stackLayout;horizontal=1;startSize=26;horizontalStack=0;resizeParent=1;resizeParentMax=0;resizeLast=0;collapsible=1;marginBottom=0;fillColor=#e51400;fontColor=#ffffff;strokeColor=#B20000;" parent="WIyWlLk6GJQsqaUBKTNV-1" vertex="1">
          <mxGeometry x="26" y="200" width="183" height="112" as="geometry" />
        </mxCell>
        <mxCell id="FWzNcIcn6qoyuVg69suf-34" value="" style="line;strokeWidth=1;fillColor=none;align=left;verticalAlign=middle;spacingTop=-1;spacingLeft=3;spacingRight=3;rotatable=0;labelPosition=right;points=[];portConstraint=eastwest;" parent="FWzNcIcn6qoyuVg69suf-32" vertex="1">
          <mxGeometry y="26" width="183" height="8" as="geometry" />
        </mxCell>
        <mxCell id="FWzNcIcn6qoyuVg69suf-35" value="+ GetViewer(): virtural  QWidget*" style="text;strokeColor=none;fillColor=none;align=left;verticalAlign=top;spacingLeft=4;spacingRight=4;overflow=hidden;rotatable=0;points=[[0,0.5],[1,0.5]];portConstraint=eastwest;" parent="FWzNcIcn6qoyuVg69suf-32" vertex="1">
          <mxGeometry y="34" width="183" height="26" as="geometry" />
        </mxCell>
        <mxCell id="_HhjCLEWaKEjp_m6gsVB-6" value="+ Connect(): virtural int" style="text;strokeColor=none;fillColor=none;align=left;verticalAlign=top;spacingLeft=4;spacingRight=4;overflow=hidden;rotatable=0;points=[[0,0.5],[1,0.5]];portConstraint=eastwest;" parent="FWzNcIcn6qoyuVg69suf-32" vertex="1">
          <mxGeometry y="60" width="183" height="26" as="geometry" />
        </mxCell>
        <mxCell id="_HhjCLEWaKEjp_m6gsVB-7" value="+ DisConnect(): virtural  int" style="text;strokeColor=none;fillColor=none;align=left;verticalAlign=top;spacingLeft=4;spacingRight=4;overflow=hidden;rotatable=0;points=[[0,0.5],[1,0.5]];portConstraint=eastwest;" parent="FWzNcIcn6qoyuVg69suf-32" vertex="1">
          <mxGeometry y="86" width="183" height="26" as="geometry" />
        </mxCell>
        <mxCell id="FWzNcIcn6qoyuVg69suf-58" value="" style="edgeStyle=orthogonalEdgeStyle;rounded=0;orthogonalLoop=1;jettySize=auto;html=1;entryX=0.5;entryY=1;entryDx=0;entryDy=0;endArrow=block;endFill=0;" parent="WIyWlLk6GJQsqaUBKTNV-1" source="FWzNcIcn6qoyuVg69suf-54" target="FWzNcIcn6qoyuVg69suf-32" edge="1">
          <mxGeometry relative="1" as="geometry">
            <mxPoint x="117" y="410" as="targetPoint" />
          </mxGeometry>
        </mxCell>
        <mxCell id="XWf4ELNEIzCQ09PdJ5Sf-43" style="edgeStyle=orthogonalEdgeStyle;rounded=0;orthogonalLoop=1;jettySize=auto;html=1;entryX=0.5;entryY=0;entryDx=0;entryDy=0;startArrow=block;startFill=0;endArrow=none;endFill=0;" parent="WIyWlLk6GJQsqaUBKTNV-1" source="FWzNcIcn6qoyuVg69suf-54" target="XWf4ELNEIzCQ09PdJ5Sf-39" edge="1">
          <mxGeometry relative="1" as="geometry" />
        </mxCell>
        <mxCell id="FWzNcIcn6qoyuVg69suf-54" value="CConnecterDesktopThread&#xa;" style="swimlane;fontStyle=1;align=center;verticalAlign=top;childLayout=stackLayout;horizontal=1;startSize=26;horizontalStack=0;resizeParent=1;resizeParentMax=0;resizeLast=0;collapsible=1;marginBottom=0;fillColor=#dae8fc;strokeColor=#6c8ebf;" parent="WIyWlLk6GJQsqaUBKTNV-1" vertex="1">
          <mxGeometry x="-8" y="491" width="250" height="112" as="geometry" />
        </mxCell>
        <mxCell id="FWzNcIcn6qoyuVg69suf-55" value="+ m_pThread: CConnectThread*" style="text;strokeColor=none;fillColor=none;align=left;verticalAlign=top;spacingLeft=4;spacingRight=4;overflow=hidden;rotatable=0;points=[[0,0.5],[1,0.5]];portConstraint=eastwest;" parent="FWzNcIcn6qoyuVg69suf-54" vertex="1">
          <mxGeometry y="26" width="250" height="26" as="geometry" />
        </mxCell>
        <mxCell id="FWzNcIcn6qoyuVg69suf-56" value="" style="line;strokeWidth=1;fillColor=none;align=left;verticalAlign=middle;spacingTop=-1;spacingLeft=3;spacingRight=3;rotatable=0;labelPosition=right;points=[];portConstraint=eastwest;" parent="FWzNcIcn6qoyuVg69suf-54" vertex="1">
          <mxGeometry y="52" width="250" height="8" as="geometry" />
        </mxCell>
        <mxCell id="_HhjCLEWaKEjp_m6gsVB-20" value="+ GetViewer(): virtural QWidget*" style="text;strokeColor=none;fillColor=none;align=left;verticalAlign=top;spacingLeft=4;spacingRight=4;overflow=hidden;rotatable=0;points=[[0,0.5],[1,0.5]];portConstraint=eastwest;" parent="FWzNcIcn6qoyuVg69suf-54" vertex="1">
          <mxGeometry y="60" width="250" height="26" as="geometry" />
        </mxCell>
        <mxCell id="FWzNcIcn6qoyuVg69suf-57" value="+ InstanceConnect() = 0 : virtural CConnect*" style="text;strokeColor=none;fillColor=none;align=left;verticalAlign=top;spacingLeft=4;spacingRight=4;overflow=hidden;rotatable=0;points=[[0,0.5],[1,0.5]];portConstraint=eastwest;" parent="FWzNcIcn6qoyuVg69suf-54" vertex="1">
          <mxGeometry y="86" width="250" height="26" as="geometry" />
        </mxCell>
        <mxCell id="FWzNcIcn6qoyuVg69suf-59" value="CFrmViewer" style="swimlane;fontStyle=1;align=center;verticalAlign=top;childLayout=stackLayout;horizontal=1;startSize=26;horizontalStack=0;resizeParent=1;resizeParentMax=0;resizeLast=0;collapsible=1;marginBottom=0;fillColor=#e51400;fontColor=#ffffff;strokeColor=#B20000;" parent="WIyWlLk6GJQsqaUBKTNV-1" vertex="1">
          <mxGeometry x="597" y="210" width="160" height="34" as="geometry" />
        </mxCell>
        <mxCell id="FWzNcIcn6qoyuVg69suf-61" value="" style="line;strokeWidth=1;fillColor=none;align=left;verticalAlign=middle;spacingTop=-1;spacingLeft=3;spacingRight=3;rotatable=0;labelPosition=right;points=[];portConstraint=eastwest;" parent="FWzNcIcn6qoyuVg69suf-59" vertex="1">
          <mxGeometry y="26" width="160" height="8" as="geometry" />
        </mxCell>
        <mxCell id="FWzNcIcn6qoyuVg69suf-63" value="CConnect" style="swimlane;fontStyle=1;align=center;verticalAlign=top;childLayout=stackLayout;horizontal=1;startSize=26;horizontalStack=0;resizeParent=1;resizeParentMax=0;resizeLast=0;collapsible=1;marginBottom=0;fillColor=#d5e8d4;strokeColor=#82b366;" parent="WIyWlLk6GJQsqaUBKTNV-1" vertex="1">
          <mxGeometry x="597" y="624" width="160" height="112" as="geometry" />
        </mxCell>
        <mxCell id="FWzNcIcn6qoyuVg69suf-65" value="" style="line;strokeWidth=1;fillColor=none;align=left;verticalAlign=middle;spacingTop=-1;spacingLeft=3;spacingRight=3;rotatable=0;labelPosition=right;points=[];portConstraint=eastwest;" parent="FWzNcIcn6qoyuVg69suf-63" vertex="1">
          <mxGeometry y="26" width="160" height="8" as="geometry" />
        </mxCell>
        <mxCell id="FWzNcIcn6qoyuVg69suf-66" value="+ OnInit(): virtural  int" style="text;strokeColor=none;fillColor=none;align=left;verticalAlign=top;spacingLeft=4;spacingRight=4;overflow=hidden;rotatable=0;points=[[0,0.5],[1,0.5]];portConstraint=eastwest;" parent="FWzNcIcn6qoyuVg69suf-63" vertex="1">
          <mxGeometry y="34" width="160" height="26" as="geometry" />
        </mxCell>
        <mxCell id="FWzNcIcn6qoyuVg69suf-64" value="+ OnProcess(): virtural  int" style="text;strokeColor=none;fillColor=none;align=left;verticalAlign=top;spacingLeft=4;spacingRight=4;overflow=hidden;rotatable=0;points=[[0,0.5],[1,0.5]];portConstraint=eastwest;" parent="FWzNcIcn6qoyuVg69suf-63" vertex="1">
          <mxGeometry y="60" width="160" height="26" as="geometry" />
        </mxCell>
        <mxCell id="_HhjCLEWaKEjp_m6gsVB-21" value="+ OnClean(): virtural int" style="text;strokeColor=none;fillColor=none;align=left;verticalAlign=top;spacingLeft=4;spacingRight=4;overflow=hidden;rotatable=0;points=[[0,0.5],[1,0.5]];portConstraint=eastwest;" parent="FWzNcIcn6qoyuVg69suf-63" vertex="1">
          <mxGeometry y="86" width="160" height="26" as="geometry" />
        </mxCell>
        <mxCell id="_HhjCLEWaKEjp_m6gsVB-5" style="edgeStyle=orthogonalEdgeStyle;rounded=0;orthogonalLoop=1;jettySize=auto;html=1;startArrow=diamondThin;startFill=0;endArrow=none;endFill=0;entryX=0.225;entryY=0.962;entryDx=0;entryDy=0;entryPerimeter=0;exitX=1;exitY=0.5;exitDx=0;exitDy=0;" parent="WIyWlLk6GJQsqaUBKTNV-1" source="_HhjCLEWaKEjp_m6gsVB-1" target="_HhjCLEWaKEjp_m6gsVB-7" edge="1">
          <mxGeometry relative="1" as="geometry">
            <mxPoint x="77" y="410" as="targetPoint" />
          </mxGeometry>
        </mxCell>
        <mxCell id="GPEywEIopu2BrU6Vq163-42" value="&lt;div&gt;1&lt;/div&gt;" style="edgeLabel;html=1;align=center;verticalAlign=middle;resizable=0;points=[];" vertex="1" connectable="0" parent="_HhjCLEWaKEjp_m6gsVB-5">
          <mxGeometry x="-0.8922" y="1" relative="1" as="geometry">
            <mxPoint y="-13" as="offset" />
          </mxGeometry>
        </mxCell>
        <mxCell id="GPEywEIopu2BrU6Vq163-43" value="0..n" style="edgeLabel;html=1;align=center;verticalAlign=middle;resizable=0;points=[];" vertex="1" connectable="0" parent="_HhjCLEWaKEjp_m6gsVB-5">
          <mxGeometry x="0.868" y="1" relative="1" as="geometry">
            <mxPoint x="-16" as="offset" />
          </mxGeometry>
        </mxCell>
        <mxCell id="XWf4ELNEIzCQ09PdJ5Sf-38" style="edgeStyle=orthogonalEdgeStyle;rounded=0;orthogonalLoop=1;jettySize=auto;html=1;entryX=0.5;entryY=0;entryDx=0;entryDy=0;endArrow=none;endFill=0;startArrow=block;startFill=0;" parent="WIyWlLk6GJQsqaUBKTNV-1" source="_HhjCLEWaKEjp_m6gsVB-0" target="XWf4ELNEIzCQ09PdJ5Sf-32" edge="1">
          <mxGeometry relative="1" as="geometry" />
        </mxCell>
        <mxCell id="_HhjCLEWaKEjp_m6gsVB-0" value="CPluginViewer" style="swimlane;fontStyle=0;childLayout=stackLayout;horizontal=1;startSize=26;horizontalStack=0;resizeParent=1;resizeParentMax=0;resizeLast=0;collapsible=1;marginBottom=0;fillColor=#ffe6cc;strokeColor=#d79b00;" parent="WIyWlLk6GJQsqaUBKTNV-1" vertex="1">
          <mxGeometry x="-437.5" y="425" width="370" height="52" as="geometry" />
        </mxCell>
        <mxCell id="_HhjCLEWaKEjp_m6gsVB-1" value="+ CreateConnecter(const QString&amp; szProtol): virtural CConnecter*&#xa;" style="text;strokeColor=none;fillColor=none;align=left;verticalAlign=top;spacingLeft=4;spacingRight=4;overflow=hidden;rotatable=0;points=[[0,0.5],[1,0.5]];portConstraint=eastwest;" parent="_HhjCLEWaKEjp_m6gsVB-0" vertex="1">
          <mxGeometry y="26" width="370" height="26" as="geometry" />
        </mxCell>
        <mxCell id="_HhjCLEWaKEjp_m6gsVB-8" value="CConnectThread" style="swimlane;fontStyle=0;childLayout=stackLayout;horizontal=1;startSize=26;fillColor=none;horizontalStack=0;resizeParent=1;resizeParentMax=0;resizeLast=0;collapsible=1;marginBottom=0;" parent="WIyWlLk6GJQsqaUBKTNV-1" vertex="1">
          <mxGeometry x="344" y="600" width="140" height="52" as="geometry" />
        </mxCell>
        <mxCell id="XWf4ELNEIzCQ09PdJ5Sf-49" style="edgeStyle=orthogonalEdgeStyle;rounded=0;orthogonalLoop=1;jettySize=auto;html=1;entryX=0.557;entryY=0;entryDx=0;entryDy=0;entryPerimeter=0;startArrow=diamondThin;startFill=1;endArrow=none;endFill=0;" parent="WIyWlLk6GJQsqaUBKTNV-1" source="XWf4ELNEIzCQ09PdJ5Sf-32" target="XWf4ELNEIzCQ09PdJ5Sf-44" edge="1">
          <mxGeometry relative="1" as="geometry" />
        </mxCell>
        <mxCell id="XWf4ELNEIzCQ09PdJ5Sf-50" style="edgeStyle=orthogonalEdgeStyle;rounded=0;orthogonalLoop=1;jettySize=auto;html=1;entryX=0;entryY=0.25;entryDx=0;entryDy=0;startArrow=diamondThin;startFill=0;endArrow=none;endFill=0;exitX=1;exitY=0.5;exitDx=0;exitDy=0;" parent="WIyWlLk6GJQsqaUBKTNV-1" source="XWf4ELNEIzCQ09PdJ5Sf-33" target="XWf4ELNEIzCQ09PdJ5Sf-39" edge="1">
          <mxGeometry relative="1" as="geometry" />
        </mxCell>
        <mxCell id="GPEywEIopu2BrU6Vq163-46" value="1" style="edgeLabel;html=1;align=center;verticalAlign=middle;resizable=0;points=[];" vertex="1" connectable="0" parent="XWf4ELNEIzCQ09PdJ5Sf-50">
          <mxGeometry x="-0.6842" y="1" relative="1" as="geometry">
            <mxPoint x="-6" y="-8" as="offset" />
          </mxGeometry>
        </mxCell>
        <mxCell id="GPEywEIopu2BrU6Vq163-47" value="0..n" style="edgeLabel;html=1;align=center;verticalAlign=middle;resizable=0;points=[];" vertex="1" connectable="0" parent="XWf4ELNEIzCQ09PdJ5Sf-50">
          <mxGeometry x="0.8045" relative="1" as="geometry">
            <mxPoint x="-10" y="-9" as="offset" />
          </mxGeometry>
        </mxCell>
        <mxCell id="XWf4ELNEIzCQ09PdJ5Sf-32" value="CPluginViewerThread" style="swimlane;fontStyle=0;childLayout=stackLayout;horizontal=1;startSize=26;fillColor=#ffe6cc;horizontalStack=0;resizeParent=1;resizeParentMax=0;resizeLast=0;collapsible=1;marginBottom=0;strokeColor=#d79b00;" parent="WIyWlLk6GJQsqaUBKTNV-1" vertex="1">
          <mxGeometry x="-477" y="650" width="449" height="52" as="geometry" />
        </mxCell>
        <mxCell id="XWf4ELNEIzCQ09PdJ5Sf-33" value="+ OnCreateConnecter(const QString &amp;szProtol) = 0: virtual CConnecterDesktop* " style="text;strokeColor=none;fillColor=none;align=left;verticalAlign=top;spacingLeft=4;spacingRight=4;overflow=hidden;rotatable=0;points=[[0,0.5],[1,0.5]];portConstraint=eastwest;" parent="XWf4ELNEIzCQ09PdJ5Sf-32" vertex="1">
          <mxGeometry y="26" width="449" height="26" as="geometry" />
        </mxCell>
        <mxCell id="XWf4ELNEIzCQ09PdJ5Sf-39" value="CConnecterDesktop" style="swimlane;fontStyle=0;childLayout=stackLayout;horizontal=1;startSize=26;fillColor=#dae8fc;horizontalStack=0;resizeParent=1;resizeParentMax=0;resizeLast=0;collapsible=1;marginBottom=0;strokeColor=#6c8ebf;" parent="WIyWlLk6GJQsqaUBKTNV-1" vertex="1">
          <mxGeometry x="47" y="676" width="140" height="52" as="geometry" />
        </mxCell>
        <mxCell id="XWf4ELNEIzCQ09PdJ5Sf-55" style="edgeStyle=orthogonalEdgeStyle;rounded=0;orthogonalLoop=1;jettySize=auto;html=1;entryX=0;entryY=0.5;entryDx=0;entryDy=0;startArrow=diamondThin;startFill=1;endArrow=none;endFill=0;" parent="WIyWlLk6GJQsqaUBKTNV-1" source="XWf4ELNEIzCQ09PdJ5Sf-44" target="XWf4ELNEIzCQ09PdJ5Sf-51" edge="1">
          <mxGeometry relative="1" as="geometry" />
        </mxCell>
        <mxCell id="GPEywEIopu2BrU6Vq163-48" value="1" style="edgeLabel;html=1;align=center;verticalAlign=middle;resizable=0;points=[];" vertex="1" connectable="0" parent="XWf4ELNEIzCQ09PdJ5Sf-55">
          <mxGeometry x="-0.9139" relative="1" as="geometry">
            <mxPoint y="-16" as="offset" />
          </mxGeometry>
        </mxCell>
        <mxCell id="GPEywEIopu2BrU6Vq163-49" value="1" style="edgeLabel;html=1;align=center;verticalAlign=middle;resizable=0;points=[];" vertex="1" connectable="0" parent="XWf4ELNEIzCQ09PdJ5Sf-55">
          <mxGeometry x="0.9176" y="3" relative="1" as="geometry">
            <mxPoint y="-13" as="offset" />
          </mxGeometry>
        </mxCell>
        <mxCell id="XWf4ELNEIzCQ09PdJ5Sf-44" value="CPluginThread" style="swimlane;fontStyle=0;childLayout=stackLayout;horizontal=1;startSize=26;fillColor=none;horizontalStack=0;resizeParent=1;resizeParentMax=0;resizeLast=0;collapsible=1;marginBottom=0;" parent="WIyWlLk6GJQsqaUBKTNV-1" vertex="1">
          <mxGeometry x="-330" y="800" width="140" height="52" as="geometry" />
        </mxCell>
        <mxCell id="XWf4ELNEIzCQ09PdJ5Sf-51" value="CManageConnect" style="swimlane;fontStyle=0;childLayout=stackLayout;horizontal=1;startSize=26;fillColor=none;horizontalStack=0;resizeParent=1;resizeParentMax=0;resizeLast=0;collapsible=1;marginBottom=0;" parent="WIyWlLk6GJQsqaUBKTNV-1" vertex="1">
          <mxGeometry x="344" y="800" width="140" height="52" as="geometry" />
        </mxCell>
        <mxCell id="-lwjiQ5BWQqYzuNuZnVc-1" style="edgeStyle=orthogonalEdgeStyle;rounded=0;orthogonalLoop=1;jettySize=auto;html=1;entryX=0;entryY=0.5;entryDx=0;entryDy=0;endArrow=none;endFill=0;startArrow=diamondThin;startFill=0;" parent="WIyWlLk6GJQsqaUBKTNV-1" source="FWzNcIcn6qoyuVg69suf-3" target="_HhjCLEWaKEjp_m6gsVB-6" edge="1">
          <mxGeometry relative="1" as="geometry" />
        </mxCell>
        <mxCell id="GPEywEIopu2BrU6Vq163-44" value="1" style="edgeLabel;html=1;align=center;verticalAlign=middle;resizable=0;points=[];" vertex="1" connectable="0" parent="-lwjiQ5BWQqYzuNuZnVc-1">
          <mxGeometry x="-0.7" relative="1" as="geometry">
            <mxPoint y="-13" as="offset" />
          </mxGeometry>
        </mxCell>
        <mxCell id="GPEywEIopu2BrU6Vq163-45" value="0..n" style="edgeLabel;html=1;align=center;verticalAlign=middle;resizable=0;points=[];" vertex="1" connectable="0" parent="-lwjiQ5BWQqYzuNuZnVc-1">
          <mxGeometry x="0.74" relative="1" as="geometry">
            <mxPoint y="-13" as="offset" />
          </mxGeometry>
        </mxCell>
        <mxCell id="GPEywEIopu2BrU6Vq163-8" value="1" style="endArrow=open;html=1;endSize=12;startArrow=diamondThin;startSize=14;startFill=1;edgeStyle=orthogonalEdgeStyle;align=left;verticalAlign=bottom;rounded=0;exitX=1;exitY=0.5;exitDx=0;exitDy=0;entryX=0;entryY=0.25;entryDx=0;entryDy=0;" edge="1" parent="WIyWlLk6GJQsqaUBKTNV-1" source="FWzNcIcn6qoyuVg69suf-55" target="_HhjCLEWaKEjp_m6gsVB-8">
          <mxGeometry x="-1" y="3" relative="1" as="geometry">
            <mxPoint x="300" y="620" as="sourcePoint" />
            <mxPoint x="460" y="620" as="targetPoint" />
          </mxGeometry>
        </mxCell>
        <mxCell id="GPEywEIopu2BrU6Vq163-38" value="1" style="edgeLabel;html=1;align=center;verticalAlign=middle;resizable=0;points=[];" vertex="1" connectable="0" parent="GPEywEIopu2BrU6Vq163-8">
          <mxGeometry x="0.7059" y="-1" relative="1" as="geometry">
            <mxPoint y="-14" as="offset" />
          </mxGeometry>
        </mxCell>
        <mxCell id="GPEywEIopu2BrU6Vq163-6" value="1" style="endArrow=open;html=1;endSize=12;startArrow=diamondThin;startSize=14;startFill=1;edgeStyle=orthogonalEdgeStyle;align=left;verticalAlign=bottom;rounded=0;exitX=1;exitY=0.75;exitDx=0;exitDy=0;" edge="1" parent="WIyWlLk6GJQsqaUBKTNV-1" source="XWf4ELNEIzCQ09PdJ5Sf-51" target="FWzNcIcn6qoyuVg69suf-63">
          <mxGeometry x="-1" y="3" relative="1" as="geometry">
            <mxPoint x="-8" y="839" as="sourcePoint" />
            <mxPoint x="663" y="627" as="targetPoint" />
          </mxGeometry>
        </mxCell>
        <mxCell id="GPEywEIopu2BrU6Vq163-35" value="&lt;div&gt;0..n&lt;/div&gt;" style="edgeLabel;html=1;align=center;verticalAlign=middle;resizable=0;points=[];" vertex="1" connectable="0" parent="GPEywEIopu2BrU6Vq163-6">
          <mxGeometry x="0.9253" y="1" relative="1" as="geometry">
            <mxPoint x="-16" as="offset" />
          </mxGeometry>
        </mxCell>
        <mxCell id="GPEywEIopu2BrU6Vq163-36" value="1" style="endArrow=open;html=1;endSize=12;startArrow=diamondThin;startSize=14;startFill=1;edgeStyle=orthogonalEdgeStyle;align=left;verticalAlign=bottom;rounded=0;exitX=1;exitY=0.75;exitDx=0;exitDy=0;entryX=-0.006;entryY=0.134;entryDx=0;entryDy=0;entryPerimeter=0;" edge="1" parent="WIyWlLk6GJQsqaUBKTNV-1" source="_HhjCLEWaKEjp_m6gsVB-8" target="FWzNcIcn6qoyuVg69suf-63">
          <mxGeometry x="-1" y="3" relative="1" as="geometry">
            <mxPoint x="410" y="630" as="sourcePoint" />
            <mxPoint x="570" y="630" as="targetPoint" />
          </mxGeometry>
        </mxCell>
        <mxCell id="GPEywEIopu2BrU6Vq163-37" value="1" style="edgeLabel;html=1;align=center;verticalAlign=middle;resizable=0;points=[];" vertex="1" connectable="0" parent="GPEywEIopu2BrU6Vq163-36">
          <mxGeometry x="0.8348" y="-2" relative="1" as="geometry">
            <mxPoint y="-15" as="offset" />
          </mxGeometry>
        </mxCell>
        <mxCell id="GPEywEIopu2BrU6Vq163-39" value="1" style="endArrow=open;html=1;endSize=12;startArrow=diamondThin;startSize=14;startFill=1;edgeStyle=orthogonalEdgeStyle;align=left;verticalAlign=bottom;rounded=0;exitX=1;exitY=0.5;exitDx=0;exitDy=0;entryX=0;entryY=0.5;entryDx=0;entryDy=0;" edge="1" parent="WIyWlLk6GJQsqaUBKTNV-1" source="_HhjCLEWaKEjp_m6gsVB-20" target="FWzNcIcn6qoyuVg69suf-59">
          <mxGeometry x="-1" y="3" relative="1" as="geometry">
            <mxPoint x="280" y="440" as="sourcePoint" />
            <mxPoint x="440" y="440" as="targetPoint" />
          </mxGeometry>
        </mxCell>
        <mxCell id="GPEywEIopu2BrU6Vq163-41" value="1" style="edgeLabel;html=1;align=center;verticalAlign=middle;resizable=0;points=[];" vertex="1" connectable="0" parent="GPEywEIopu2BrU6Vq163-39">
          <mxGeometry x="0.9243" relative="1" as="geometry">
            <mxPoint y="-17" as="offset" />
          </mxGeometry>
        </mxCell>
      </root>
    </mxGraphModel>
  </diagram>
</mxfile>
